<?xml version="1.0" encoding="UTF-8"?>
<svg width="222px" height="222px" viewBox="0 0 222 222" version="1.1" xmlns="http://www.w3.org/2000/svg" xmlns:xlink="http://www.w3.org/1999/xlink">
    <title>Group</title>
    <defs>
        <linearGradient x1="50%" y1="100%" x2="50%" y2="0%" id="linearGradient-1">
            <stop stop-color="#5309AF" offset="0%"></stop>
            <stop stop-color="#9B09C4" offset="100%"></stop>
        </linearGradient>
    </defs>
    <g id="icon" stroke="none" stroke-width="1" fill="none" fill-rule="evenodd">
        <g id="Group">
            <g id="Group-2" fill="url(#linearGradient-1)">
                <rect id="Rectangle" x="0" y="0" width="222" height="222"></rect>
            </g>
            <path d="M34.096,65 L34.096,100.072 L71.088,100.072 L71.088,65 L91.184,65 L91.184,156.392 L71.088,156.392 L71.088,116.968 L34.096,116.968 L34.096,156.392 L14,156.392 L14,65 L34.096,65 Z M137.008,65 L158.384,127.848 L158.64,127.848 L178.864,65 L207.152,65 L207.152,156.392 L188.336,156.392 L188.336,91.624 L188.08,91.624 L165.68,156.392 L150.192,156.392 L127.792,92.264 L127.536,92.264 L127.536,156.392 L108.72,156.392 L108.72,65 L137.008,65 Z" id="Combined-Shape" fill-opacity="0.65" fill="#FFFFFF" fill-rule="nonzero"></path>
        </g>
    </g>
</svg>