<?xml version="1.0" encoding="UTF-8"?>
<svg width="42px" height="48px" viewBox="0 0 42 48" version="1.1" xmlns="http://www.w3.org/2000/svg" xmlns:xlink="http://www.w3.org/1999/xlink">
    <title>shopify</title>
    <g id="Welcome" stroke="none" stroke-width="1" fill="none" fill-rule="evenodd">
        <g id="Desktop-HD-Copy" transform="translate(-150.000000, -1144.000000)" fill="#FFFFFF" fill-rule="nonzero">
            <g id="shopify" transform="translate(150.000000, 1144.000000)">
                <path d="M30.847,6.995 L32.525,8.668 C32.525,8.668 36.195,8.942 36.368,8.956 C36.580538,8.974187 36.7531439,9.13523084 36.786,9.346 C36.819,9.588 42,44.792 42,44.792 L29.287,47.555 L30.847,6.995 L30.847,6.995 Z M28.897,5.661 C28.8158324,5.67146527 28.735594,5.68818161 28.657,5.711 L27.229,6.153 C26.377,3.69 24.874,1.427 22.231,1.427 C22.158,1.427 22.081,1.429 22.007,1.434 C21.254,0.435 20.323,0 19.519,0 C13.359,0 10.415,7.74 9.493,11.672 C7.099,12.417 5.399,12.946 5.183,13.015 C3.845,13.437 3.803,13.479 3.628,14.744 C3.496,15.702 0,42.871 0,42.871 L27.24,48 L27.269,47.994 L28.897,5.661 L28.897,5.661 Z M21.805,7.572 L21.804,7.841 L17.042,9.322 C17.959,5.768 19.677,4.05 21.18,3.402 C21.557,4.356 21.805,5.725 21.805,7.572 Z M19.348,1.66 C19.616,1.66 19.883,1.752 20.14,1.929 C18.165,2.862 16.05,5.214 15.156,9.909 L11.393,11.081 C12.439,7.499 14.924,1.661 19.348,1.661 L19.348,1.66 Z M20.41,22.593 C20.41,22.593 18.816,21.738 16.862,21.738 C13.996,21.738 13.852,23.545 13.852,24 C13.852,26.486 20.296,27.438 20.296,33.258 C20.296,37.836 17.406,40.785 13.509,40.785 C8.833,40.785 6.442,37.86 6.442,37.86 L7.694,33.703 C7.694,33.703 10.153,35.824 12.227,35.824 C13.581,35.824 14.133,34.752 14.133,33.969 C14.133,30.727 8.845,30.582 8.845,25.255 C8.845,20.774 12.047,16.435 18.51,16.435 C21,16.435 22.23,17.153 22.23,17.153 L20.41,22.593 L20.41,22.593 Z M23.419,7.338 L23.42,6.838 C23.42,5.308 23.208,4.076 22.87,3.099 C24.232,3.27 25.14,4.829 25.723,6.621 L23.419,7.338 Z" id="Shopify"></path>
            </g>
        </g>
    </g>
</svg>